<mxfile host="app.diagrams.net" modified="2023-04-04T10:20:59.624Z" agent="Mozilla/5.0 (X11; Linux x86_64) AppleWebKit/537.36 (KHTML, like Gecko) Chrome/111.0.0.0 Safari/537.36" etag="tqhtY0QsNvBQV_YQSdSH" version="21.1.4" type="device">
  <diagram name="Page-1" id="2YBvvXClWsGukQMizWep">
    <mxGraphModel dx="3014" dy="852" grid="1" gridSize="10" guides="1" tooltips="1" connect="1" arrows="1" fold="1" page="1" pageScale="1" pageWidth="827" pageHeight="1169" math="0" shadow="0">
      <root>
        <mxCell id="0" />
        <mxCell id="1" parent="0" />
        <mxCell id="jsvgJYNI73I1Y0Frh0Hg-1" value="" style="rounded=1;whiteSpace=wrap;html=1;fontSize=18;strokeWidth=3;shadow=0;" parent="1" vertex="1">
          <mxGeometry x="-567" y="440" width="790" height="310" as="geometry" />
        </mxCell>
        <mxCell id="jsvgJYNI73I1Y0Frh0Hg-11" value="&lt;span style=&quot;font-size: 18px;&quot;&gt;4. &lt;a href=&quot;https://github.com/maticnetwork/pos-portal/blob/master/contracts/root/RootChainManager/RootChainManager.sol#L330&quot;&gt;exit()&lt;/a&gt;&lt;/span&gt;" style="edgeStyle=orthogonalEdgeStyle;rounded=0;orthogonalLoop=1;jettySize=auto;html=1;fontStyle=0;verticalAlign=middle;strokeColor=default;fontSize=18;strokeWidth=3;shadow=0;entryX=0.25;entryY=1;entryDx=0;entryDy=0;exitX=0.9;exitY=0.5;exitDx=0;exitDy=0;exitPerimeter=0;" parent="1" source="jsvgJYNI73I1Y0Frh0Hg-2" target="jsvgJYNI73I1Y0Frh0Hg-7" edge="1">
          <mxGeometry x="0.3339" relative="1" as="geometry">
            <Array as="points">
              <mxPoint x="-486" y="689" />
            </Array>
            <mxPoint as="offset" />
          </mxGeometry>
        </mxCell>
        <mxCell id="prdAxgXay6FlOw_dW2oJ-3" value="2. wait for &lt;br&gt;&lt;a href=&quot;https://github.com/maticnetwork/matic.js/blob/master/src/pos/exit_util.ts#L129&quot;&gt;checkpoint arrival&lt;/a&gt;" style="edgeStyle=orthogonalEdgeStyle;rounded=0;orthogonalLoop=1;jettySize=auto;html=1;exitX=0.9;exitY=0.5;exitDx=0;exitDy=0;exitPerimeter=0;strokeWidth=3;fontSize=18;" parent="1" source="jsvgJYNI73I1Y0Frh0Hg-2" edge="1">
          <mxGeometry x="0.1133" relative="1" as="geometry">
            <mxPoint x="-387" y="350" as="targetPoint" />
            <Array as="points">
              <mxPoint x="-607" y="689" />
              <mxPoint x="-607" y="350" />
            </Array>
            <mxPoint as="offset" />
          </mxGeometry>
        </mxCell>
        <mxCell id="jsvgJYNI73I1Y0Frh0Hg-2" value="" style="shape=actor;whiteSpace=wrap;html=1;fontSize=18;strokeWidth=3;shadow=0;" parent="1" vertex="1">
          <mxGeometry x="-747" y="614" width="100" height="150" as="geometry" />
        </mxCell>
        <mxCell id="jsvgJYNI73I1Y0Frh0Hg-17" value="4.2 &lt;a href=&quot;https://github.com/maticnetwork/pos-portal/blob/master/contracts/root/TokenPredicates/ERC20Predicate.sol#L63&quot;&gt;exitTokens()&lt;/a&gt;" style="edgeStyle=orthogonalEdgeStyle;rounded=0;orthogonalLoop=1;jettySize=auto;html=1;entryX=0;entryY=0.5;entryDx=0;entryDy=0;fontSize=18;strokeWidth=3;shadow=0;" parent="1" source="jsvgJYNI73I1Y0Frh0Hg-7" target="jsvgJYNI73I1Y0Frh0Hg-16" edge="1">
          <mxGeometry relative="1" as="geometry" />
        </mxCell>
        <mxCell id="jsvgJYNI73I1Y0Frh0Hg-7" value="&lt;font style=&quot;font-size: 18px;&quot;&gt;RootChainManager&lt;/font&gt;" style="rounded=1;whiteSpace=wrap;html=1;fontSize=18;strokeWidth=3;shadow=0;" parent="1" vertex="1">
          <mxGeometry x="-532" y="470" width="185" height="60" as="geometry" />
        </mxCell>
        <mxCell id="jsvgJYNI73I1Y0Frh0Hg-12" value="" style="rounded=1;whiteSpace=wrap;html=1;fontSize=18;strokeWidth=3;shadow=0;" parent="1" vertex="1">
          <mxGeometry x="-567" y="110" width="780" height="170" as="geometry" />
        </mxCell>
        <mxCell id="jsvgJYNI73I1Y0Frh0Hg-13" value="&lt;font style=&quot;font-size: 18px;&quot;&gt;SomeERC20&lt;/font&gt;" style="rounded=1;whiteSpace=wrap;html=1;fontSize=18;strokeWidth=3;shadow=0;" parent="1" vertex="1">
          <mxGeometry x="-407" y="659" width="120" height="60" as="geometry" />
        </mxCell>
        <mxCell id="jsvgJYNI73I1Y0Frh0Hg-41" value="&lt;span style=&quot;font-size: 18px;&quot;&gt;4.2.1 safeTransfer()&lt;/span&gt;" style="edgeStyle=orthogonalEdgeStyle;rounded=0;orthogonalLoop=1;jettySize=auto;html=1;entryX=1;entryY=0.5;entryDx=0;entryDy=0;exitX=0.5;exitY=1;exitDx=0;exitDy=0;strokeWidth=3;" parent="1" source="jsvgJYNI73I1Y0Frh0Hg-16" target="jsvgJYNI73I1Y0Frh0Hg-13" edge="1">
          <mxGeometry x="-0.6825" relative="1" as="geometry">
            <mxPoint as="offset" />
          </mxGeometry>
        </mxCell>
        <mxCell id="jsvgJYNI73I1Y0Frh0Hg-16" value="ERC20Predicate" style="rounded=1;whiteSpace=wrap;html=1;fontSize=18;strokeWidth=3;shadow=0;" parent="1" vertex="1">
          <mxGeometry x="-241" y="570" width="180" height="60" as="geometry" />
        </mxCell>
        <mxCell id="jsvgJYNI73I1Y0Frh0Hg-18" value="&lt;font style=&quot;font-size: 18px;&quot;&gt;StateSender&lt;/font&gt;" style="rounded=1;whiteSpace=wrap;html=1;fontSize=18;strokeWidth=3;shadow=0;" parent="1" vertex="1">
          <mxGeometry x="-177" y="470" width="130" height="60" as="geometry" />
        </mxCell>
        <mxCell id="jsvgJYNI73I1Y0Frh0Hg-22" value="" style="ellipse;whiteSpace=wrap;html=1;aspect=fixed;allowArrows=0;strokeWidth=3;container=0;fillColor=#000000;fontSize=18;shadow=0;" parent="1" vertex="1">
          <mxGeometry x="-321" y="350" width="20" height="20" as="geometry" />
        </mxCell>
        <mxCell id="jsvgJYNI73I1Y0Frh0Hg-25" value="" style="ellipse;whiteSpace=wrap;html=1;aspect=fixed;allowArrows=0;strokeWidth=3;container=0;fillColor=#000000;fontSize=18;shadow=0;" parent="1" vertex="1">
          <mxGeometry x="-291" y="350" width="20" height="20" as="geometry" />
        </mxCell>
        <mxCell id="jsvgJYNI73I1Y0Frh0Hg-26" value="" style="ellipse;whiteSpace=wrap;html=1;aspect=fixed;allowArrows=0;strokeWidth=3;container=0;fillColor=#000000;fontSize=18;shadow=0;" parent="1" vertex="1">
          <mxGeometry x="-261" y="350" width="20" height="20" as="geometry" />
        </mxCell>
        <mxCell id="jsvgJYNI73I1Y0Frh0Hg-31" value="&lt;font style=&quot;font-size: 18px;&quot;&gt;ChildChainManager&lt;/font&gt;" style="rounded=1;whiteSpace=wrap;html=1;fontSize=18;strokeWidth=3;shadow=0;" parent="1" vertex="1">
          <mxGeometry x="-537" y="140" width="180" height="60" as="geometry" />
        </mxCell>
        <mxCell id="jsvgJYNI73I1Y0Frh0Hg-34" value="&lt;font style=&quot;font-size: 18px;&quot;&gt;SomeERC20&lt;/font&gt;" style="rounded=1;whiteSpace=wrap;html=1;fontSize=18;strokeWidth=3;shadow=0;" parent="1" vertex="1">
          <mxGeometry x="-197" y="140" width="150" height="60" as="geometry" />
        </mxCell>
        <mxCell id="jsvgJYNI73I1Y0Frh0Hg-37" value="1. &lt;a href=&quot;https://github.com/maticnetwork/pos-portal/blob/master/contracts/child/ChildToken/ChildERC20.sol#L65&quot;&gt;withdraw()&lt;/a&gt;" style="edgeStyle=orthogonalEdgeStyle;rounded=0;orthogonalLoop=1;jettySize=auto;html=1;fontSize=18;strokeWidth=3;shadow=0;entryX=0.5;entryY=0;entryDx=0;entryDy=0;" parent="1" source="jsvgJYNI73I1Y0Frh0Hg-2" target="jsvgJYNI73I1Y0Frh0Hg-34" edge="1">
          <mxGeometry x="-0.4927" relative="1" as="geometry">
            <mxPoint x="-117" y="40" as="targetPoint" />
            <Array as="points">
              <mxPoint x="-697" y="40" />
              <mxPoint x="-122" y="40" />
            </Array>
            <mxPoint as="offset" />
          </mxGeometry>
        </mxCell>
        <mxCell id="jsvgJYNI73I1Y0Frh0Hg-38" value="&lt;font style=&quot;font-size: 22px;&quot;&gt;MATIC Sidechain&lt;/font&gt;" style="text;html=1;strokeColor=none;fillColor=none;align=center;verticalAlign=middle;whiteSpace=wrap;rounded=0;" parent="1" vertex="1">
          <mxGeometry x="3" y="240" width="210" height="30" as="geometry" />
        </mxCell>
        <mxCell id="jsvgJYNI73I1Y0Frh0Hg-39" value="&lt;font style=&quot;font-size: 22px;&quot;&gt;Ethereum&lt;/font&gt;" style="text;html=1;strokeColor=none;fillColor=none;align=center;verticalAlign=middle;whiteSpace=wrap;rounded=0;" parent="1" vertex="1">
          <mxGeometry x="3" y="710" width="210" height="30" as="geometry" />
        </mxCell>
        <mxCell id="jsvgJYNI73I1Y0Frh0Hg-40" value="&lt;font style=&quot;font-size: 22px;&quot;&gt;Checkpointing process&lt;/font&gt;" style="text;html=1;strokeColor=none;fillColor=none;align=center;verticalAlign=middle;whiteSpace=wrap;rounded=0;" parent="1" vertex="1">
          <mxGeometry x="-390" y="310" width="236" height="30" as="geometry" />
        </mxCell>
        <mxCell id="8CzqEyUPqeCIx78_vM4F-1" value="1.1 _burn()" style="edgeStyle=orthogonalEdgeStyle;rounded=0;orthogonalLoop=1;jettySize=auto;html=1;exitX=0.5;exitY=1;exitDx=0;exitDy=0;entryX=0.25;entryY=1;entryDx=0;entryDy=0;strokeWidth=3;fontSize=18;" parent="1" source="jsvgJYNI73I1Y0Frh0Hg-34" target="jsvgJYNI73I1Y0Frh0Hg-34" edge="1">
          <mxGeometry x="-0.0968" y="20" relative="1" as="geometry">
            <Array as="points">
              <mxPoint x="-122" y="230" />
              <mxPoint x="-159" y="230" />
            </Array>
            <mxPoint as="offset" />
          </mxGeometry>
        </mxCell>
        <mxCell id="prdAxgXay6FlOw_dW2oJ-2" value="4.1 verify proof..." style="edgeStyle=orthogonalEdgeStyle;rounded=0;orthogonalLoop=1;jettySize=auto;html=1;exitX=0.75;exitY=1;exitDx=0;exitDy=0;entryX=0.5;entryY=1;entryDx=0;entryDy=0;strokeWidth=3;fontSize=18;" parent="1" source="jsvgJYNI73I1Y0Frh0Hg-7" target="jsvgJYNI73I1Y0Frh0Hg-7" edge="1">
          <mxGeometry x="-0.1759" y="20" relative="1" as="geometry">
            <Array as="points">
              <mxPoint x="-393" y="560" />
              <mxPoint x="-439" y="560" />
            </Array>
            <mxPoint as="offset" />
          </mxGeometry>
        </mxCell>
        <mxCell id="prdAxgXay6FlOw_dW2oJ-6" value="2.1 &lt;a href=&quot;https://github.com/maticnetwork/contracts/blob/main/contracts/root/RootChain.sol#L66&quot;&gt;getLastChildBlock()&lt;/a&gt;" style="edgeStyle=orthogonalEdgeStyle;rounded=0;orthogonalLoop=1;jettySize=auto;html=1;exitX=0.25;exitY=0;exitDx=0;exitDy=0;strokeWidth=3;startArrow=classic;startFill=1;endArrow=none;endFill=0;fontSize=18;" parent="1" source="prdAxgXay6FlOw_dW2oJ-4" edge="1">
          <mxGeometry relative="1" as="geometry">
            <mxPoint x="49" y="360" as="targetPoint" />
          </mxGeometry>
        </mxCell>
        <mxCell id="prdAxgXay6FlOw_dW2oJ-4" value="&lt;font style=&quot;font-size: 18px;&quot;&gt;RootChain&lt;/font&gt;" style="rounded=1;whiteSpace=wrap;html=1;fontSize=18;strokeWidth=3;shadow=0;" parent="1" vertex="1">
          <mxGeometry x="3" y="470" width="185" height="60" as="geometry" />
        </mxCell>
        <mxCell id="prdAxgXay6FlOw_dW2oJ-5" value="3. &lt;a href=&quot;https://github.com/maticnetwork/matic.js/blob/master/src/pos/exit_util.ts#L221&quot;&gt;generate&lt;br&gt;proof&lt;/a&gt;" style="edgeStyle=orthogonalEdgeStyle;rounded=0;orthogonalLoop=1;jettySize=auto;html=1;exitX=0;exitY=0.75;exitDx=0;exitDy=0;entryX=0.25;entryY=0.2;entryDx=0;entryDy=0;entryPerimeter=0;fontSize=18;strokeWidth=3;labelBackgroundColor=none;" parent="1" source="jsvgJYNI73I1Y0Frh0Hg-2" target="jsvgJYNI73I1Y0Frh0Hg-2" edge="1">
          <mxGeometry x="0.5039" y="24" relative="1" as="geometry">
            <Array as="points">
              <mxPoint x="-790" y="727" />
              <mxPoint x="-790" y="644" />
            </Array>
            <mxPoint as="offset" />
          </mxGeometry>
        </mxCell>
        <mxCell id="D-Olfp8JDV4yF999vZMM-1" value="" style="rounded=0;whiteSpace=wrap;html=1;fillColor=none;strokeColor=none;strokeWidth=0;" vertex="1" parent="1">
          <mxGeometry x="-840" width="1120" height="800" as="geometry" />
        </mxCell>
      </root>
    </mxGraphModel>
  </diagram>
</mxfile>
